<svg width="50" height="50" viewBox="0 0 50 50" fill="none" xmlns="http://www.w3.org/2000/svg">
<g clip-path="url(#clip0_1437_10)">
<path d="M25 0L46.6506 12.5V37.5L25 50L3.34937 37.5V12.5L25 0Z" fill="white"/>
<path d="M15.2013 41.9068L10.7695 41.9056L16.6202 25.985L18.5903 20.6243L23.5971 7L27.9608 7.00118L40.7695 41.9138L36.3377 41.9126L32.0441 29.8072L31.0481 26.9992L25.9138 12.5234L25.6411 12.5233L20.499 26.996L18.8932 31.5156L15.2013 41.9068Z" fill="black"/>
<path d="M33.7695 23.0052L16.7705 23L16.7695 26.9948L20.499 26.996L21.1969 26.9962L29.0382 26.9986L31.0481 26.9992L33.7685 27L33.7695 23.0052Z" fill="black"/>
<path fill-rule="evenodd" clip-rule="evenodd" d="M13.0549 7.09341L8.00947 7.09204L8 42.0011L11.9545 42.0022L11.9617 15.4795L12.3027 15.4796L16.6203 25.985L17.7568 28.7503L18.8933 31.5156L20.4991 26.996L21.197 26.9962L18.5904 20.6243L13.0549 7.09341ZM29.0383 26.9986L31.0482 26.9992L32.0442 29.8072L37.939 15.4865L38.2799 15.4866L38.2727 42.0094L42.2273 42.0104L42.2367 7.10133L37.1913 7.09996L29.0383 26.9986Z" fill="black"/>
</g>
<defs>
<clipPath id="clip0_1437_10">
<rect width="50" height="50" fill="white"/>
</clipPath>
</defs>
</svg>
